<?xml version="1.0" standalone="no"?>
<!DOCTYPE svg PUBLIC "-//W3C//DTD SVG 20010904//EN"
 "http://www.w3.org/TR/2001/REC-SVG-20010904/DTD/svg10.dtd">
<svg version="1.0" xmlns="http://www.w3.org/2000/svg"
 width="820.000000pt" height="820.000000pt" viewBox="0 0 820.000000 820.000000"
 preserveAspectRatio="xMidYMid meet">

<g transform="translate(0.000000,820.000000) scale(0.100000,-0.100000)"
fill="#ffffff" stroke="none">
<path d="M3964 7156 c-40 -18 -98 -87 -112 -134 -6 -20 -16 -71 -22 -112 -6
-41 -15 -87 -21 -102 -15 -37 -64 -57 -166 -69 -116 -13 -165 -38 -228 -116
-62 -78 -86 -94 -148 -104 -27 -5 -57 -15 -66 -23 -9 -8 -70 -25 -136 -36
-196 -35 -220 -45 -297 -123 -79 -79 -151 -117 -230 -120 -90 -3 -151 38 -127
85 14 25 52 43 148 67 103 26 158 61 183 118 75 169 -213 129 -386 -54 -34
-36 -95 -100 -138 -142 -56 -57 -80 -89 -89 -121 -10 -34 -11 -44 -1 -48 7 -2
59 -26 115 -54 83 -41 176 -71 242 -79 6 0 -1 -4 -14 -8 -37 -10 -37 -29 0
-48 50 -27 156 -130 201 -196 22 -32 57 -70 78 -85 22 -15 39 -30 40 -35 0 -4
-24 -6 -52 -5 -29 1 -68 -2 -86 -7 -32 -7 -36 -5 -88 51 -30 32 -50 60 -44 62
19 7 10 48 -15 72 -22 21 -29 22 -61 12 -42 -13 -60 -8 -67 19 -5 17 -15 19
-87 19 -46 0 -124 -6 -174 -14 -50 -8 -131 -19 -181 -25 -107 -13 -159 -26
-179 -46 -8 -8 -29 -58 -46 -110 -18 -53 -43 -109 -56 -124 -27 -32 -171 -111
-203 -111 -12 0 -40 -9 -64 -19 -23 -11 -53 -23 -67 -26 -14 -4 -49 -26 -79
-48 -30 -22 -85 -55 -122 -73 -59 -29 -72 -32 -99 -23 -16 6 -30 14 -30 18 0
4 18 15 41 25 23 10 61 37 85 61 41 39 48 42 102 42 100 1 172 46 280 175 107
128 122 169 77 213 -20 21 -34 25 -81 25 -64 0 -237 -53 -310 -96 -55 -32
-121 -106 -129 -145 -4 -16 -13 -29 -20 -29 -31 0 -25 -24 16 -66 l43 -44 -59
0 c-32 0 -73 5 -91 12 -37 13 -79 -3 -201 -79 -102 -62 -122 -94 -83 -133 27
-27 96 -26 199 3 44 13 81 20 81 15 0 -4 16 -16 35 -25 19 -9 35 -20 35 -24 0
-3 -28 -10 -62 -13 -134 -16 -338 -110 -434 -201 -95 -90 -61 -170 91 -210 77
-20 148 -19 250 2 l82 17 107 -28 c126 -34 186 -32 266 9 44 23 51 30 46 49
-5 19 3 28 44 55 79 51 97 92 64 139 -15 22 -15 22 34 22 26 0 74 5 106 11 70
13 108 2 187 -53 52 -37 62 -40 155 -48 54 -5 145 -6 202 -3 70 4 102 3 102
-5 0 -19 -83 -82 -134 -101 -28 -10 -108 -28 -177 -40 -218 -36 -392 -104
-405 -158 -5 -19 -2 -30 11 -40 23 -16 45 -16 170 2 130 19 242 19 295 0 23
-8 63 -33 88 -56 26 -22 59 -47 75 -55 44 -24 238 -38 332 -24 166 23 318 74
385 128 l25 20 117 -60 c124 -63 175 -106 141 -119 -10 -4 -30 -8 -45 -8 -14
-1 -64 -14 -110 -30 -46 -16 -135 -45 -198 -66 -63 -20 -151 -53 -195 -72 -74
-34 -82 -35 -122 -24 -57 15 -90 -2 -132 -67 -17 -27 -31 -51 -31 -55 0 -25
382 -11 477 18 29 9 87 32 129 51 74 35 77 36 138 25 123 -22 210 -12 266 30
25 18 203 -69 224 -109 20 -39 20 -42 -2 -42 -48 0 -127 -35 -195 -86 -87 -64
-106 -92 -89 -129 9 -20 7 -34 -14 -80 -14 -30 -24 -67 -22 -82 4 -34 53 -69
108 -77 22 -3 59 -9 82 -12 53 -8 81 -39 108 -119 12 -35 30 -76 42 -90 35
-45 120 -95 207 -121 80 -25 88 -30 150 -97 36 -39 101 -106 143 -148 l77 -76
-29 -72 c-16 -39 -57 -160 -90 -268 -40 -130 -72 -216 -97 -257 -69 -114 -185
-291 -207 -314 -33 -37 -85 -59 -155 -66 -80 -9 -110 -24 -155 -79 -42 -52
-96 -152 -96 -179 0 -55 -91 -128 -235 -188 -73 -30 -115 -55 -155 -91 l-55
-50 70 5 c253 19 231 15 277 55 24 21 73 52 109 69 54 26 73 41 97 80 16 26
33 57 37 69 4 14 17 25 33 29 15 3 42 10 61 15 25 6 59 3 121 -11 89 -20 165
-16 236 10 39 15 56 12 92 -18 l34 -28 -36 -43 c-19 -23 -66 -66 -104 -96
-114 -89 -224 -255 -262 -397 -12 -46 -9 -78 7 -78 12 0 138 159 210 265 97
142 94 140 246 166 64 11 71 14 105 58 38 47 114 121 126 121 3 0 6 -14 6 -30
0 -17 14 -58 30 -91 38 -75 50 -170 27 -215 -8 -16 -49 -58 -91 -93 -42 -35
-76 -68 -76 -73 0 -25 41 -15 141 33 113 55 144 80 179 150 30 58 26 106 -15
173 l-35 58 19 27 c29 39 73 78 99 86 13 4 49 4 81 0 l57 -7 66 -86 c36 -48
77 -105 92 -128 15 -23 37 -46 49 -52 12 -6 83 -12 158 -14 l135 -3 48 -40 48
-39 41 22 c86 46 85 44 32 106 -46 53 -51 56 -134 75 -47 11 -126 27 -176 35
-78 12 -93 18 -117 44 -35 41 -62 135 -42 155 3 3 36 -8 72 -25 179 -80 219
-91 306 -85 l81 6 65 -85 c70 -93 102 -122 168 -152 42 -19 45 -19 144 -1 56
10 103 20 105 22 4 5 -181 147 -191 147 -5 0 -40 21 -78 46 -48 32 -79 62 -99
95 -27 43 -38 51 -108 77 -75 29 -186 54 -301 67 l-55 7 -54 81 c-49 74 -57
95 -82 203 -40 175 -86 242 -198 284 l-45 18 -20 86 -19 86 27 69 c26 66 27
76 21 173 l-7 103 46 70 c29 43 58 106 76 163 32 99 36 137 19 175 -13 28
-100 84 -147 93 -17 4 -32 9 -32 13 0 3 32 29 71 56 51 36 83 69 117 120 26
39 47 71 47 72 0 1 25 -7 55 -17 46 -15 102 -19 350 -23 175 -3 317 -1 350 5
152 27 236 127 288 340 9 37 19 68 24 68 11 0 10 37 0 44 -5 3 -44 -34 -87
-81 -92 -100 -168 -153 -256 -178 -74 -20 -148 -23 -364 -11 -101 5 -175 4
-202 -2 -38 -9 -42 -8 -34 7 5 9 19 25 30 35 12 11 31 35 42 53 18 28 26 33
61 33 22 0 68 7 102 16 66 17 108 15 223 -10 111 -25 176 -4 231 73 17 24 53
53 96 76 60 33 67 40 53 50 -11 8 -17 26 -17 49 0 41 -28 76 -60 76 -12 0 -34
7 -51 15 -16 9 -34 13 -38 10 -11 -6 -2 -45 10 -45 5 0 9 -4 9 -9 0 -24 -84
-22 -217 4 -76 15 -140 29 -142 30 -5 5 29 104 50 147 17 33 131 158 145 158
4 0 20 -12 37 -26 31 -26 34 -26 132 -21 55 3 125 13 155 21 207 59 247 54
287 -31 43 -90 84 -107 200 -83 67 14 302 42 338 41 127 -5 148 -8 157 -24 12
-23 80 -22 106 1 27 23 40 92 17 92 -9 0 -78 32 -153 72 -120 63 -133 73 -114
81 18 8 22 19 22 52 l0 43 -37 -9 c-42 -9 -46 -8 -38 12 10 25 85 71 138 85
86 23 90 21 59 -33 -17 -31 -26 -62 -26 -94 -2 -84 46 -110 167 -91 83 13 102
8 128 -35 25 -40 113 -100 159 -110 41 -8 83 32 110 104 26 70 25 105 -5 201
-34 108 -45 117 -134 103 -128 -20 -224 -10 -194 20 6 6 68 14 140 19 126 8
170 19 213 55 8 7 42 15 75 17 40 3 85 15 135 38 75 34 177 102 194 130 5 8
22 27 38 42 24 23 28 35 31 89 2 56 0 64 -17 67 -11 2 -25 -4 -33 -13 -11 -16
-15 -16 -29 -4 -12 10 -42 14 -98 13 -67 0 -99 -7 -186 -38 -58 -21 -118 -39
-135 -40 -31 -3 -150 -50 -173 -69 -9 -7 -38 -6 -97 3 -82 13 -84 14 -70 34 8
12 40 41 71 66 61 49 65 56 84 166 13 71 13 72 51 83 63 19 77 68 34 120 -40
47 -117 79 -234 96 -112 17 -121 20 -121 38 0 7 -46 32 -102 57 -98 42 -108
50 -214 156 -114 113 -176 154 -342 224 l-52 23 -39 -26 -39 -26 -33 25 c-70
52 -125 55 -252 14 -98 -31 -153 -38 -159 -19 -2 6 -18 12 -36 13 -17 1 -44
13 -59 27 -16 14 -60 54 -99 90 -48 44 -92 74 -137 94 l-67 28 6 47 c11 82 -9
118 -114 202 -11 9 -37 20 -56 24 -29 5 -36 3 -36 -10 0 -9 -27 -28 -72 -49
-88 -41 -139 -82 -206 -163 -49 -59 -100 -94 -139 -94 -14 0 -25 12 -35 39
-10 24 -35 54 -66 78 -45 36 -57 41 -127 47 -43 4 -80 4 -84 0 -9 -9 98 -102
141 -121 44 -20 50 -37 11 -29 -88 16 -115 17 -166 2 -30 -9 -60 -23 -67 -31
-16 -19 -30 -19 -30 -1 0 8 -7 17 -15 20 -16 6 -25 -9 -44 -80 -19 -68 -110
-289 -118 -287 -4 2 -11 16 -15 31 -12 46 -41 66 -86 59 l-39 -5 48 70 c27 39
54 87 60 107 7 20 23 54 37 76 32 51 37 104 18 185 -14 60 -14 67 2 100 25 52
70 70 173 70 109 0 175 -13 266 -50 39 -17 82 -30 95 -30 52 1 78 45 78 132 0
144 -70 179 -410 204 -113 8 -232 17 -265 20 -39 3 -71 0 -91 -10z m1210 -688
c9 -14 4 -25 -26 -55 -37 -39 -58 -100 -74 -218 -3 -27 -8 -53 -10 -56 -7 -12
-119 18 -172 46 -29 15 -55 26 -58 23 -15 -16 101 -204 185 -300 38 -42 38
-44 31 -98 -5 -30 -15 -73 -23 -96 -15 -41 -55 -124 -60 -124 -1 0 -1 17 1 38
4 41 -37 163 -66 195 -9 11 -38 30 -64 43 -31 16 -49 32 -52 47 -2 12 -11 61
-20 108 l-16 87 39 58 c22 33 60 79 85 104 39 38 46 50 47 85 1 52 8 69 44 97
48 37 189 48 209 16z m128 -108 c29 -22 88 -58 131 -80 l79 -40 -34 -14 c-44
-18 -288 -29 -288 -12 1 35 46 186 56 186 2 0 27 -18 56 -40z m-971 8 c29 -14
194 -38 254 -38 10 0 12 -10 8 -36 -3 -20 2 -70 12 -115 17 -75 17 -82 2 -114
l-17 -35 -85 0 -85 0 10 26 c11 29 13 116 4 163 -4 20 -12 31 -24 31 -13 0
-22 -19 -38 -77 -12 -43 -24 -96 -28 -119 -6 -40 -6 -40 -66 -53 -33 -7 -62
-10 -64 -8 -2 2 -9 28 -14 59 -10 52 -9 58 26 133 20 44 41 107 47 142 6 35
14 62 17 60 3 -2 21 -10 41 -19z m479 -14 c0 -3 -8 -19 -17 -34 -17 -29 -39
-40 -81 -40 -19 0 -23 4 -20 27 3 23 10 29 53 39 64 15 65 15 65 8z m-1080
-34 c0 -5 -11 -44 -25 -87 -14 -43 -25 -86 -25 -95 0 -20 -107 -92 -202 -137
-38 -18 -68 -36 -68 -41 0 -4 14 -20 32 -35 28 -24 39 -27 78 -22 25 3 67 15
94 26 l48 21 -6 -22 c-3 -13 -6 -33 -6 -45 0 -22 -4 -23 -67 -23 -38 -1 -86
-7 -108 -15 l-40 -15 -67 68 -66 68 14 54 c8 30 14 71 14 92 0 46 0 46 146 21
95 -16 103 -16 127 0 17 11 28 29 32 54 11 62 15 73 47 109 30 34 48 43 48 24z
m170 -75 c-7 -8 -18 -15 -24 -15 -6 0 -2 7 8 15 25 19 32 19 16 0z m1794 -66
c15 -13 -18 -43 -128 -118 l-101 -68 -63 7 c-47 4 -67 11 -74 24 -6 10 -28 26
-50 36 -38 17 -39 19 -20 29 11 6 49 11 85 11 62 0 174 35 262 83 29 15 70 14
89 -4z m142 -61 l36 -32 -27 -24 c-22 -18 -35 -22 -58 -18 -16 3 -38 6 -49 6
-18 0 -15 6 16 40 20 23 34 45 31 50 -13 21 16 8 51 -22z m-2616 -17 c0 -27
-46 -78 -90 -101 -37 -19 -38 -19 -56 1 -19 21 -18 21 11 45 25 20 121 74 132
74 2 0 3 -9 3 -19z m2727 -73 c18 -7 33 -15 33 -19 0 -17 -61 -142 -99 -201
l-41 -65 -57 5 c-32 2 -60 6 -61 7 -2 2 15 28 37 59 41 55 47 94 12 81 -57
-22 -145 -82 -179 -123 -89 -106 -113 -187 -91 -299 24 -120 6 -212 -52 -269
l-39 -38 0 27 c0 46 -25 91 -74 133 l-46 39 34 48 c35 49 38 61 61 262 l6 50
38 -3 c24 -2 52 3 72 14 l34 17 -32 14 c-111 45 -26 128 157 153 103 14 166
40 211 86 38 39 33 38 76 22z m-677 -8 c13 -9 13 -10 0 -10 -8 0 -22 5 -30 10
-13 9 -13 10 0 10 8 0 22 -5 30 -10z m-1200 -39 c0 -28 -2 -29 -72 -41 -40 -6
-89 -16 -108 -21 -64 -17 -70 -14 -70 35 0 53 -1 53 148 55 l102 1 0 -29z
m1338 -32 c-2 -6 -8 -10 -13 -10 -5 0 -11 4 -13 10 -2 6 4 11 13 11 9 0 15 -5
13 -11z m-2377 -111 c-28 -68 -26 -86 11 -121 19 -17 59 -45 89 -62 l56 -30
-14 -33 -14 -34 -21 27 c-25 33 -75 55 -120 55 -19 0 -71 19 -125 46 -87 43
-94 49 -104 86 -5 22 -13 46 -16 54 -3 10 2 14 18 14 33 1 96 31 143 69 l40
32 35 -35 c34 -35 35 -37 22 -68z m3002 37 c-9 -19 -18 -33 -21 -31 -4 5 26
66 33 66 3 0 -3 -16 -12 -35z m-788 -95 l47 -20 -7 -43 c-9 -51 -90 -260 -103
-265 -5 -1 -15 5 -23 14 -15 19 -19 207 -6 287 10 55 20 58 92 27z m-2851
-139 c41 -10 86 -47 118 -99 l20 -33 -25 -37 c-14 -20 -31 -49 -38 -64 -10
-23 -19 -27 -71 -33 -96 -11 -243 3 -263 25 -16 18 -15 21 20 55 25 23 57 40
93 49 30 8 59 19 64 24 5 5 10 35 11 66 1 62 2 62 71 47z m3256 0 c0 -5 -9
-11 -20 -14 -22 -6 -28 8 -7 16 19 8 27 8 27 -2z m945 -56 c36 -8 33 -44 -8
-97 -33 -43 -34 -43 -88 -39 -30 1 -55 4 -57 6 -6 6 50 121 65 132 9 7 27 10
40 8 12 -3 34 -7 48 -10z m360 -165 c-71 -71 -133 -130 -137 -130 -10 0 -128
91 -128 99 0 3 12 39 27 79 l28 73 45 -8 c63 -11 230 -8 260 5 14 6 27 11 30
11 3 1 -54 -57 -125 -129z m-3869 1 c21 -30 22 -37 8 -39 -45 -10 -104 45
-104 97 0 20 0 20 36 -1 19 -11 46 -37 60 -57z m850 42 c10 -10 32 -49 50 -88
33 -71 51 -96 97 -131 22 -18 25 -30 30 -100 2 -43 7 -88 11 -99 3 -11 2 -26
-3 -33 -6 -11 -33 0 -121 50 l-113 64 -18 59 c-11 33 -26 89 -35 125 -12 49
-24 74 -51 102 l-36 37 24 9 c69 27 141 28 165 5z m864 -78 c7 -36 10 -72 6
-80 -3 -9 -29 -27 -57 -40 l-52 -24 33 -19 32 -20 -20 -20 c-12 -12 -36 -28
-54 -38 -18 -9 -42 -25 -54 -35 l-21 -20 -22 58 c-12 32 -38 82 -57 111 l-35
53 43 18 c24 11 77 33 119 50 42 18 85 41 94 51 10 11 21 20 25 20 4 0 13 -29
20 -65z m1407 38 c21 -10 39 -18 41 -19 2 -1 -9 -14 -23 -30 -24 -26 -34 -29
-114 -34 -48 -3 -94 -10 -102 -17 -11 -9 -19 -8 -33 3 -11 8 -39 14 -63 14
-24 0 -43 2 -43 5 0 2 12 25 27 50 l28 45 122 0 c94 0 131 -4 160 -17z m-2615
-175 c54 -26 88 -47 91 -59 6 -22 -21 -26 -53 -9 -13 7 -21 7 -25 0 -3 -5 -28
-10 -56 -10 -41 0 -49 -3 -49 -18 0 -20 -46 -47 -54 -33 -16 25 -34 124 -29
159 l5 41 42 -16 c22 -8 80 -33 128 -55z m-1538 -3 c4 -26 22 -65 42 -95 38
-56 37 -70 -6 -70 -22 0 -49 17 -102 63 -80 70 -118 93 -175 106 l-38 8 50 7
c28 3 70 10 95 15 25 4 64 9 86 10 l42 1 6 -45z m217 -21 c-12 -15 -21 -41
-21 -60 0 -19 -3 -34 -7 -34 -20 1 -30 19 -36 68 l-6 52 45 0 45 0 -20 -26z
m954 4 c16 -43 10 -61 -25 -74 -41 -15 -109 -18 -128 -5 -11 7 -11 9 1 14 7 3
22 21 31 41 16 34 19 36 67 36 31 0 51 -5 54 -12z m2475 -46 c18 -41 20 -52
10 -88 -11 -38 -15 -42 -68 -58 -32 -10 -94 -35 -140 -57 -101 -47 -149 -62
-185 -57 -26 3 -25 5 31 48 31 25 88 63 126 85 81 45 145 100 171 149 10 19
22 33 27 30 4 -3 17 -26 28 -52z m620 18 l81 -41 -18 -24 c-18 -24 -38 -36
-155 -98 l-67 -35 -73 23 c-40 13 -95 26 -123 30 -78 10 -81 12 -59 36 11 12
39 35 63 51 40 28 46 30 81 19 50 -15 50 -15 50 12 0 18 11 28 48 44 67 30 82
28 172 -17z m-3744 -13 c56 -32 154 -124 160 -150 8 -36 5 -39 -37 -27 -19 6
-64 12 -100 15 -41 2 -79 12 -100 24 -19 11 -60 27 -91 36 l-58 16 96 50 c53
27 99 49 103 49 3 -1 16 -6 27 -13z m1842 -109 l32 -83 -30 -29 c-33 -34 -31
-36 -53 64 -13 63 -7 130 12 130 4 0 22 -37 39 -82z m-2551 30 c11 -13 24 -29
28 -37 8 -15 -9 -11 -73 16 -32 13 -33 15 -16 28 26 20 37 18 61 -7z m3123 -3
c0 -2 -7 -5 -15 -9 -9 -3 -15 0 -15 9 0 9 6 12 15 9 8 -4 15 -7 15 -9z m1575
-17 c29 -13 29 -12 10 -98 -23 -107 -80 -133 -187 -83 l-63 30 67 66 c56 57
112 95 140 97 4 0 19 -5 33 -12z m-1341 -23 c3 -8 1 -15 -4 -15 -6 0 -10 7
-10 15 0 8 2 15 4 15 2 0 6 -7 10 -15z m-375 -80 c17 -20 31 -39 31 -44 0 -9
-87 -43 -155 -60 -49 -13 -55 -13 -55 -2 0 12 128 141 140 141 4 0 22 -16 39
-35z m-1797 -51 c20 -4 60 -1 88 6 28 7 53 10 56 7 3 -3 -2 -17 -11 -31 -13
-20 -16 -42 -13 -91 4 -73 5 -72 -68 -50 -51 15 -61 27 -111 119 -28 52 -28
60 0 52 12 -3 39 -9 59 -12z m2276 -274 l34 0 -40 -47 c-21 -27 -47 -60 -57
-75 -9 -16 -21 -28 -25 -28 -7 0 -40 126 -40 157 0 31 9 33 53 12 23 -10 57
-19 75 -19z m-632 -3 c36 -7 69 -8 107 -1 l55 10 -28 -35 c-27 -35 -58 -112
-80 -198 -6 -24 -14 -43 -19 -43 -8 0 -95 188 -106 230 -4 14 -9 34 -12 44 -4
15 -2 18 13 12 11 -4 42 -13 70 -19z m384 -172 c10 -27 20 -70 24 -94 l7 -43
-85 3 c-46 2 -87 7 -91 11 -4 3 0 17 8 30 9 12 19 44 22 70 4 28 19 63 38 89
l30 41 15 -28 c9 -16 23 -51 32 -79z m-865 -194 c-24 -77 -28 -81 -75 -69 -30
8 -51 7 -84 -4 -43 -14 -44 -14 -78 16 -19 17 -42 36 -50 41 -9 6 -19 24 -22
40 l-7 31 87 16 c99 19 133 43 154 111 l13 42 40 -84 40 -85 -18 -55z m-624
189 c60 -18 66 -23 94 -72 16 -29 35 -66 41 -83 6 -16 28 -65 48 -107 21 -42
40 -95 43 -117 5 -37 3 -41 -21 -51 -34 -13 -103 -13 -111 0 -3 5 -8 39 -12
74 -6 62 -9 70 -64 135 -32 38 -75 79 -96 92 -62 38 -156 131 -141 141 25 15
155 8 219 -12z m950 -98 c20 -7 28 -39 19 -72 -5 -18 -10 -76 -11 -130 -1 -95
-2 -99 -48 -185 -25 -49 -50 -90 -56 -92 -5 -1 -21 13 -34 32 -23 34 -23 39
-18 182 6 156 21 231 68 326 l23 48 24 -53 c12 -29 27 -55 33 -56z m373 -352
c-4 -8 -15 -46 -25 -83 -9 -38 -25 -77 -35 -88 -25 -28 -211 -86 -233 -72 -37
23 -25 51 56 133 47 46 88 98 102 128 l23 49 59 -26 c44 -19 58 -30 53 -41z
m-1332 -216 l76 -7 22 -47 c21 -44 21 -52 9 -99 -7 -28 -16 -51 -19 -51 -7 0
-134 107 -200 167 l-45 43 41 0 c23 0 75 -3 116 -6z"/>
<path d="M3429 6983 c-39 -33 -79 -115 -79 -164 0 -49 19 -72 55 -67 26 3 30
7 27 31 -2 24 3 30 40 47 24 11 57 20 74 20 19 0 39 9 53 24 21 22 22 27 11
58 -10 26 -24 40 -59 56 -60 29 -83 28 -122 -5z"/>
<path d="M2589 6820 c-46 -24 -99 -95 -99 -131 0 -39 33 -59 95 -59 51 0 96
20 143 63 30 27 28 42 -8 64 -26 15 -29 21 -24 50 6 33 6 33 -32 33 -22 -1
-55 -10 -75 -20z"/>
<path d="M5593 6659 c-41 -12 -87 -70 -78 -98 8 -28 99 -98 136 -106 76 -17
137 22 146 94 5 35 2 44 -24 69 -20 20 -43 31 -77 36 -27 4 -54 9 -60 11 -6 2
-25 -1 -43 -6z"/>
<path d="M7541 6225 c-13 -50 -26 -60 -96 -69 -45 -7 -53 -5 -74 18 -31 33
-70 41 -115 22 -31 -13 -40 -13 -75 1 -37 14 -44 14 -108 -7 -37 -12 -84 -28
-103 -35 -30 -11 -38 -11 -55 1 -41 30 -80 54 -87 54 -3 0 -20 -11 -36 -25
-26 -22 -33 -23 -61 -14 -57 20 -85 -9 -31 -31 17 -7 30 -19 30 -26 0 -11 9
-13 38 -8 33 5 44 1 87 -31 76 -59 106 -68 157 -50 24 8 60 15 81 15 49 0 146
-40 181 -74 25 -26 31 -27 86 -21 56 6 63 5 107 -24 77 -51 127 -38 231 62 78
75 93 140 47 195 -23 28 -111 73 -166 86 -25 5 -28 2 -38 -39z"/>
<path d="M1675 6076 c-22 -8 -66 -25 -98 -40 -31 -14 -76 -29 -100 -32 -53 -8
-83 -26 -126 -76 -25 -29 -31 -42 -22 -47 20 -13 410 -22 474 -11 39 6 87 6
140 -1 123 -15 167 3 167 71 0 38 -21 65 -85 106 -29 18 -95 27 -95 12 0 -13
-52 -8 -129 12 -86 23 -74 22 -126 6z"/>
<path d="M7480 5682 c0 -8 -9 -14 -100 -60 -36 -18 -81 -41 -100 -52 -19 -11
-40 -20 -47 -20 -15 0 -17 -34 -3 -60 16 -30 57 -33 154 -11 50 12 116 26 147
31 l56 11 -13 37 c-7 20 -13 49 -14 65 0 32 -32 67 -60 67 -11 0 -20 -3 -20
-8z"/>
<path d="M585 4705 c-27 -13 -57 -25 -66 -25 -10 0 -41 -18 -70 -40 -43 -32
-62 -40 -96 -40 -39 0 -43 -2 -43 -25 0 -36 55 -93 97 -101 26 -5 51 0 99 20
36 14 75 26 89 26 13 0 58 -18 100 -40 92 -49 136 -52 176 -14 24 23 26 30 17
50 -8 18 -8 34 0 61 16 52 -6 103 -45 103 -23 0 -102 19 -193 45 -8 3 -37 -6
-65 -20z"/>
<path d="M1315 4618 c-4 -10 -31 -12 -101 -10 -99 4 -124 -4 -124 -38 0 -25
24 -42 78 -53 79 -16 154 -13 190 8 39 24 40 43 4 78 -31 30 -40 33 -47 15z"/>
<path d="M6127 4445 c-29 -28 -21 -71 16 -92 19 -10 346 -7 396 3 21 4 22 9
16 42 -4 20 -12 40 -18 45 -7 4 -64 6 -127 5 -63 -2 -149 1 -191 6 -65 7 -78
6 -92 -9z"/>
<path d="M2131 4390 c-25 -12 -65 -20 -96 -20 -38 0 -56 -5 -68 -18 -30 -33
-21 -49 33 -61 99 -21 212 -10 232 22 15 24 8 66 -14 81 -28 20 -34 20 -87 -4z"/>
<path d="M3056 4100 c-16 -5 -66 -34 -110 -64 -67 -46 -99 -60 -181 -81 -111
-29 -168 -58 -214 -110 -62 -71 -31 -148 65 -159 27 -4 83 -11 124 -16 203
-27 232 -14 329 152 52 89 95 126 163 142 20 5 25 10 21 26 -3 11 -12 20 -19
20 -8 0 -22 15 -31 34 -22 48 -90 73 -147 56z"/>
</g>
</svg>
